<svg id="Capa_1" enable-background="new 0 0 512 512" height="512" viewBox="0 0 512 512" width="512" xmlns="http://www.w3.org/2000/svg"><g><path d="m382.423 156.029-12.3-7.102c.583-4.671.877-9.327.877-13.927s-.294-9.256-.877-13.928l12.3-7.102c7.174-4.143 9.632-13.316 5.49-20.49l-30-51.961c-4.143-7.175-13.316-9.632-20.49-5.491l-12.353 7.132c-7.49-5.679-15.537-10.359-24.071-14v-14.16c0-8.284-6.716-15-15-15h-60c-8.284 0-15 6.716-15 15v14.16c-8.534 3.641-16.581 8.321-24.071 14l-12.353-7.132c-7.175-4.141-16.349-1.683-20.49 5.491l-30 51.961c-4.142 7.174-1.684 16.348 5.49 20.49l12.3 7.102c-.581 4.672-.875 9.328-.875 13.928s.294 9.256.877 13.928l-12.3 7.102c-7.174 4.143-9.632 13.316-5.49 20.49l30 51.961c4.142 7.175 13.314 9.635 20.49 5.49l12.353-7.132c7.49 5.68 15.535 10.359 24.071 14.001v14.16c0 8.284 6.716 15 15 15h60c8.284 0 15-6.716 15-15v-14.16c8.536-3.642 16.581-8.321 24.071-14.001l12.353 7.132c7.173 4.143 16.347 1.683 20.49-5.49l30-51.961c4.141-7.174 1.683-16.348-5.492-20.491zm-126.423 23.971c-24.813 0-45-20.187-45-45s20.187-45 45-45 45 20.187 45 45-20.187 45-45 45z" fill="#828282"/><path d="m382.423 156.029-12.3-7.102c.583-4.671.877-9.327.877-13.927s-.294-9.256-.877-13.928l12.3-7.102c7.174-4.143 9.632-13.316 5.49-20.49l-30-51.961c-4.143-7.175-13.316-9.632-20.49-5.491l-12.353 7.132c-7.49-5.679-15.537-10.359-24.071-14v-14.16c0-8.284-6.716-15-15-15h-30v90c24.813 0 45 20.187 45 45s-20.187 45-45 45v90h30c8.284 0 15-6.716 15-15v-14.16c8.536-3.642 16.581-8.321 24.071-14.001l12.353 7.132c7.173 4.143 16.347 1.683 20.49-5.49l30-51.961c4.143-7.174 1.685-16.348-5.49-20.491z" fill="#5a5a5a"/><path d="m466 272c-8.284 0-15-6.716-15-15v-107h-25c-8.284 0-15-6.716-15-15s6.716-15 15-15h40c8.284 0 15 6.716 15 15v122c0 8.284-6.716 15-15 15z" fill="#5a5a5a"/><path d="m46 272c-8.284 0-15-6.716-15-15v-122c0-8.284 6.716-15 15-15h40c8.284 0 15 6.716 15 15s-6.716 15-15 15h-25v107c0 8.284-6.716 15-15 15z" fill="#828282"/><g><g><g><path d="m496 512h-145c-8.284 0-30-6.716-30-15 0-52.383 42.617-95 95-95s95 42.617 95 95c0 8.284-6.716 15-15 15z" fill="#beebfa"/><path d="m416 417c-26.234 0-47.5-21.266-47.5-47.5v-20c0-26.233 21.266-47.5 47.5-47.5 26.233 0 47.5 21.266 47.5 47.5v20c0 26.233-21.266 47.5-47.5 47.5z" fill="#ffdecf"/></g><g><path d="m496 512h-145c-8.284 0-30-6.716-30-15 0-52.383 42.617-95 95-95s95 42.617 95 95c0 8.284-6.716 15-15 15z" fill="#00eed1"/><path d="m416 402v110h80c8.284 0 15-6.716 15-15 0-52.383-42.617-95-95-95z" fill="#00ccb3"/><path d="m416 417c-26.234 0-47.5-21.266-47.5-47.5v-20c0-26.233 21.266-47.5 47.5-47.5 26.233 0 47.5 21.266 47.5 47.5v20c0 26.233-21.266 47.5-47.5 47.5z" fill="#ffdecf"/><path d="m416 302v115c26.234 0 47.5-21.267 47.5-47.5v-20c0-26.234-21.266-47.5-47.5-47.5z" fill="#ffbeaa"/></g><g><path d="m161 512h-145c-8.284 0-15-6.716-15-15 0-52.383 42.617-95 95-95s95 42.617 95 95c0 8.284-21.716 15-30 15z" fill="#ff9f22"/><path d="m96 402v110h65c8.284 0 30-6.716 30-15 0-52.383-42.617-95-95-95z" fill="#ff6426"/><path d="m96 417c-26.234 0-47.5-21.266-47.5-47.5v-20c0-26.233 21.266-47.5 47.5-47.5 26.233 0 47.5 21.266 47.5 47.5v20c0 26.233-21.266 47.5-47.5 47.5z" fill="#ffdecf"/><path d="m96 302v115c26.234 0 47.5-21.267 47.5-47.5v-20c0-26.234-21.266-47.5-47.5-47.5z" fill="#ffbeaa"/></g><g><g><path d="m256 402c-52.383 0-95 42.617-95 95v15h190v-15c0-52.383-42.617-95-95-95z" fill="#beebfa"/><path d="m256 402v110h95v-15c0-52.383-42.617-95-95-95z" fill="#7ed8f7"/></g><path d="m256 417c-26.234 0-47.5-21.266-47.5-47.5v-20c0-26.233 21.266-47.5 47.5-47.5 26.233 0 47.5 21.266 47.5 47.5v20c0 26.233-21.266 47.5-47.5 47.5z" fill="#ffdecf"/><path d="m256 302v115c26.234 0 47.5-21.267 47.5-47.5v-20c0-26.234-21.266-47.5-47.5-47.5z" fill="#ffbeaa"/></g></g></g><path d="m256 195c-33.084 0-60-26.916-60-60s26.916-60 60-60 60 26.916 60 60-26.916 60-60 60zm0-90c-16.542 0-30 13.458-30 30s13.458 30 30 30 30-13.458 30-30-13.458-30-30-30z" fill="#5a5a5a"/><path d="m256 75v30c16.542 0 30 13.458 30 30s-13.458 30-30 30v30c33.084 0 60-26.916 60-60s-26.916-60-60-60z" fill="#464141"/></g></svg>